<?xml version="1.0"?>
<svg xmlns="http://www.w3.org/2000/svg" xmlns:xlink="http://www.w3.org/1999/xlink" data-noselect="" viewBox="0 0 800 600" width="1600" height="1200" preserveAspectRatio="none" version="1.1"><defs/> <g id="background" data-noselect=""><rect id="bg-rect" fill="transparent" width="800" height="600" data-noselect=""/> <!----></g> <g id="shape_AjwXCJgVSQ" transform="translate(90.67704440170323,181.6628229436976) rotate(0,254.80795548188365,159.15250278349936) scale(1,1)" filter="" style="cursor: move; opacity: 1;"><g><svg xmlns="http://www.w3.org/2000/svg" xmlns:xlink="http://www.w3.org/1999/xlink" version="1.1" id="&#x56FE;&#x5C42;_1" x="0px" y="0px" width="509.6159109637673" height="318.3050055669987" viewBox="10.189589500427246 43.904483795166016 179.6204071044922 112.19052124023438" enable-background="new 0 0 200 200" xml:space="preserve" preserveAspectRatio="none" class="style-removed" data-parent="shape_AjwXCJgVSQ">
<g>
	<path fill="#246fdd" d="M106.321,89.494c0,0,21.712-23.689,49.111-19.623c20.564,3.052,29.926,14.137,34.378,20.14H176.37   c0,0-9.943-9.084-23.78-10.899C140.013,77.462,129.843,78.121,106.321,89.494z" stroke-width="0"/>
	<path fill="#246fdd" d="M147.161,71.716c0,0-5.801-22.574-33.028-27.054S61.92,55.92,43.31,82.687l22.517-4.021   c0,0,19.354-29.195,47.101-24.24c16.083,2.872,24.699,10.109,27.916,18.496L147.161,71.716z" stroke-width="0"/>
	<path fill="#24dd7f" d="M62.38,83.893c0,0-46.698,7.782-51.696,38.255c-4.136,25.216,18.611,33.947,33.43,33.947   c18.036,0,112.698,0,112.698,0l1.206-5.687c0,0-71.397,0.324-101.38,0c-15.968-0.172-28.147-4.996-28.147-22.574   c0-14.992,12.867-26.502,29.065-32.034L62.38,83.893z" stroke-width="0"/>
</g>
</svg></g></g><g id="shape_W7YDZ35Q8m" transform="translate(35.0330458645696,-252.0976567582258) rotate(0,398.13166271607747,646.87307) scale(1,1)" filter="" style="cursor: move; opacity: 1;"><g><svg xmlns="http://www.w3.org/2000/svg" xmlns:xlink="http://www.w3.org/1999/xlink" version="1.1" width="1165.723325432155" height="1293.74614" viewBox="0 0 1165.723325432155 1293.74614" data-parent="shape_W7YDZ35Q8m"><g data-width="425.43318999999997" transform="translate(184.73, 0)"><line x1="0" x2="425.43318999999997" y1="735.19307" y2="735.19307" stroke="#246fdd" stroke-width="0" stroke-opacity="1"/></g><g data-width="425.43318999999997" transform="translate(184.73, 0)"><path d="M12.56 0L12.56-123.21L64.84-123.21Q84.42-123.21 95.14-119.34L95.14-119.34Q114.90-112.13 121.55-92.92L121.55-92.92Q126.54-78.14 126.54-61.33L126.54-61.33Q126.54-44.70 121.74-29.93L121.74-29.93Q116.93-14.78 105.85-7.57L105.85-7.57Q98.83-3.14 90.43-1.57Q82.02 0 64.84 0L64.84 0L12.56 0ZM64.84-101.23L38.79-101.23L38.79-21.98L64.84-21.98Q82.02-21.98 88.67-29.56L88.67-29.56Q92.73-34.36 95.23-43.04Q97.72-51.72 97.72-61.52L97.72-61.52Q97.72-72.41 94.77-81.47Q91.81-90.52 87.01-94.95L87.01-94.95Q79.99-101.23 64.84-101.23L64.84-101.23Z" transform="translate(0 712.87307) skewX(-14)" fill="#000000" stroke="#000000" stroke-width="0.308" stroke-miterlimit="3" data-glyph-w="132.26668" data-glyph-h="184.73000000000002" data-glyph-ascender="158.68307000000001" data-glyph-descender="-26.04693"/><path d="M80.73 0L12.56 0L12.56-123.21L82.20-123.21Q98.65-123.21 106.04-119.34L106.04-119.34Q114.72-115.09 119.15-105.11L119.15-105.11Q122.29-98.28 122.29-90.89L122.29-90.89Q122.29-81.28 117.21-72.97Q112.13-64.66 104.37-61.52L104.37-61.52Q122.29-53.39 122.29-32.51L122.29-32.51Q122.29-20.51 116.56-12.38L116.56-12.38Q111.58-5.36 103.82-2.68Q96.06 0 80.73 0L80.73 0ZM38.79-101.23L38.79-72.60L74.45-72.60Q80.17-72.60 82.67-73.15Q85.16-73.71 87.56-75.55L87.56-75.55Q93.29-79.99 93.29-87.75L93.29-87.75Q93.29-95.14 87.93-98.65L87.93-98.65Q84.05-101.23 75.00-101.23L75.00-101.23L38.79-101.23ZM38.79-50.62L38.79-21.98L74.45-21.98Q80.17-21.98 82.76-22.54Q85.35-23.09 87.56-24.94L87.56-24.94Q93.29-29.37 93.29-37.13L93.29-37.13Q93.29-44.52 87.93-48.03L87.93-48.03Q84.05-50.62 75.00-50.62L75.00-50.62L38.79-50.62Z" transform="translate(132.26668 712.87307) skewX(-14)" fill="#000000" stroke="#000000" stroke-width="0.308" stroke-miterlimit="3" data-glyph-w="128.94154" data-glyph-h="184.73000000000002" data-glyph-ascender="158.68307000000001" data-glyph-descender="-26.04693"/><path d="M12.01-123.21L50.25-123.21L80.91-26.97L113.24-123.21L151.48-123.21L151.48 0L126.54 0L126.54-92.37L94.40 0L67.43 0L36.95-92.37L36.95 0L12.01 0L12.01-123.21Z" transform="translate(261.20822 712.87307) skewX(-14)" fill="#000000" stroke="#000000" stroke-width="0.308" stroke-miterlimit="3" data-glyph-w="164.22497" data-glyph-h="184.73000000000002" data-glyph-ascender="158.68307000000001" data-glyph-descender="-26.04693"/></g><g data-width="425.43318999999997" transform="translate(184.73, 0)"><path d="M12.56 0L12.56-123.21L64.84-123.21Q84.42-123.21 95.14-119.34L95.14-119.34Q114.90-112.13 121.55-92.92L121.55-92.92Q126.54-78.14 126.54-61.33L126.54-61.33Q126.54-44.70 121.74-29.93L121.74-29.93Q116.93-14.78 105.85-7.57L105.85-7.57Q98.83-3.14 90.43-1.57Q82.02 0 64.84 0L64.84 0L12.56 0ZM64.84-101.23L38.79-101.23L38.79-21.98L64.84-21.98Q82.02-21.98 88.67-29.56L88.67-29.56Q92.73-34.36 95.23-43.04Q97.72-51.72 97.72-61.52L97.72-61.52Q97.72-72.41 94.77-81.47Q91.81-90.52 87.01-94.95L87.01-94.95Q79.99-101.23 64.84-101.23L64.84-101.23Z" transform="translate(0 712.87307) skewX(-14)" fill="#246fdd" stroke="#246fdd" stroke-width="0.308" data-glyph-w="132.26668" data-glyph-h="184.73000000000002" data-glyph-ascender="158.68307000000001" data-glyph-descender="-26.04693"/><path d="M80.73 0L12.56 0L12.56-123.21L82.20-123.21Q98.65-123.21 106.04-119.34L106.04-119.34Q114.72-115.09 119.15-105.11L119.15-105.11Q122.29-98.28 122.29-90.89L122.29-90.89Q122.29-81.28 117.21-72.97Q112.13-64.66 104.37-61.52L104.37-61.52Q122.29-53.39 122.29-32.51L122.29-32.51Q122.29-20.51 116.56-12.38L116.56-12.38Q111.58-5.36 103.82-2.68Q96.06 0 80.73 0L80.73 0ZM38.79-101.23L38.79-72.60L74.45-72.60Q80.17-72.60 82.67-73.15Q85.16-73.71 87.56-75.55L87.56-75.55Q93.29-79.99 93.29-87.75L93.29-87.75Q93.29-95.14 87.93-98.65L87.93-98.65Q84.05-101.23 75.00-101.23L75.00-101.23L38.79-101.23ZM38.79-50.62L38.79-21.98L74.45-21.98Q80.17-21.98 82.76-22.54Q85.35-23.09 87.56-24.94L87.56-24.94Q93.29-29.37 93.29-37.13L93.29-37.13Q93.29-44.52 87.93-48.03L87.93-48.03Q84.05-50.62 75.00-50.62L75.00-50.62L38.79-50.62Z" transform="translate(132.26668 712.87307) skewX(-14)" fill="#246fdd" stroke="#246fdd" stroke-width="0.308" data-glyph-w="128.94154" data-glyph-h="184.73000000000002" data-glyph-ascender="158.68307000000001" data-glyph-descender="-26.04693"/><path d="M12.01-123.21L50.25-123.21L80.91-26.97L113.24-123.21L151.48-123.21L151.48 0L126.54 0L126.54-92.37L94.40 0L67.43 0L36.95-92.37L36.95 0L12.01 0L12.01-123.21Z" transform="translate(261.20822 712.87307) skewX(-14)" fill="#246fdd" stroke="#246fdd" stroke-width="0.308" data-glyph-w="164.22497" data-glyph-h="184.73000000000002" data-glyph-ascender="158.68307000000001" data-glyph-descender="-26.04693"/></g></svg></g></g>  <!----></svg>
