<svg class="svg-icon" style="width: 1em; height: 1em;vertical-align: middle;fill: currentColor;overflow: hidden;" viewBox="0 0 1024 1024" version="1.1" xmlns="http://www.w3.org/2000/svg"><path d="M33.98656 878.48448C26.2656 870.3744 25.51808 864.7168 25.6 861.2096c0-0.54272 0.06144-1.08544 0.12288-1.60256 0.512-4.1472 2.816-10.3168 10.28608-17.5104l0.27136-0.24576 0.60416-0.60416c12.6464-11.25376 33.18272-19.78368 47.37024-24.74496 37.71904-13.21984 91.65312-23.29088 160.61952-30.06464l-0.3584 159.232c-59.4432-7.296-173.93664-28.70784-210.5344-67.18464zM26.24 168.33024a19.75296 19.75296 0 0 1-0.63488-4.6592c0-8.55552 10.3424-19.47648 28.40576-30.0032 20.93056-12.1856 50.93888-23.296 89.17504-33.09056a963.36384 963.36384 0 0 1 103.1168-19.75296l-0.3328 158.01856h-0.3072c-69.95968-6.95808-120.59648-17.02912-155.53536-28.34432l-6.144-2.11456-0.59904-0.24576c-17.4848-6.10816-44.288-17.664-54.05696-32.84992a13.4912 13.4912 0 0 1-1.12128-1.90464 22.8352 22.8352 0 0 1-1.9968-5.05344h0.03072z m-0.63488 604.672V252.03712a202.51648 202.51648 0 0 0 16.42496 7.89504l1.45408 0.6656a286.1824 286.1824 0 0 0 18.8416 7.37792c44.68224 15.79008 104.9344 27.10528 183.52128 34.4832l-0.87552 420.4032c-77.7728 7.25504-137.4208 18.41664-181.67296 33.90464-3.61984 1.28512-7.2192 2.62656-10.8032 4.02432a270.2848 270.2848 0 0 0-8.40704 3.44576l-1.57184 0.69632c-2.78528 1.21344-5.44768 2.42176-8.10496 3.6608l-0.75776 0.3584c-2.47808 1.21856-4.9408 2.46784-7.38304 3.75808l-0.6656 0.3328v-0.03072z m406.24128-59.77088c-45.07136 0.88064-85.9648 2.42176-123.56608 4.72064v-0.30208l0.88064-410.35264c37.504 2.29888 78.58176 3.87072 122.86976 4.6848l-0.18432 401.1008v0.1536z m63.22176 235.24864l0.03072-172.69248 15.72864-0.03072c130.70336-0.20992 231.79776 4.5056 309.05344 14.4896 107.56096 13.88544 148.87936 35.51232 164.608 51.21024 8.01792 8.01792 9.04704 14.3104 9.04704 18.87744 0 28.04224-38.656 49.73056-114.85184 64.43008-80.55296 15.57504-199.64416 22.9888-383.64672 23.71584h0.03072zM866.6112 226.83136c-81.4592 15.18592-197.82656 22.56896-355.7888 22.56896l-15.5136-0.06144L495.43168 76.8c180.79744 0.78848 303.1552 8.46848 383.43168 24.0128 52.3264 10.1376 114.70336 29.22496 114.70336 62.89408 0 23.92576-44.52352 46.8224-119.57248 61.70624l-7.35232 1.41824h-0.03072z m-371.456 485.64736l0.1536-399.83104 15.488 0.06144c161.8944 0 282.10176-7.74144 367.40096-23.6544l4.59776-0.8448 0.45568-0.09216 4.8128-0.90624 0.59904-0.12288 5.1456-0.9984 0.72192-0.1792 5.56544-1.152 0.69632-0.1536c1.9968-0.41984 4.02432-0.8448 6.08256-1.3312l0.54272-0.11776a242.5344 242.5344 0 0 0 6.86592-1.57184h0.09216c4.9152-1.19808 9.81504-2.4576 14.69952-3.78368l0.75776-0.20992c2.29888-0.60416 4.62848-1.30048 6.9888-1.9968l0.87552-0.24064c2.64704-0.78848 5.28896-1.59744 7.92576-2.42176a289.6896 289.6896 0 0 0 15.72864-5.44256l0.20992-0.12288c2.67264-0.98816 5.3248-2.02752 7.95648-3.11296 0.1536 0 0.3072-0.09216 0.42496-0.1536 2.5088-1.024 5.0176-2.11456 7.4752-3.20512l0.75264-0.3328c2.39104-1.06496 4.7616-2.176 7.10656-3.328l0.90624-0.42496c2.304-1.14688 4.59776-2.3296 6.87104-3.53792l0.512-0.27136v518.15936c-2.36032-1.2544-4.75136-2.4576-7.168-3.59936l-0.39424-0.1792a266.15808 266.15808 0 0 0-7.13728-3.23584l-1.21344-0.60928c-2.87232-1.20832-5.75488-2.40128-8.6528-3.56864-2.6368-1.03936-5.28896-2.048-7.95136-3.0208l-0.3072-0.09216a278.50752 278.50752 0 0 0-8.07424-2.84672l-1.57184-0.512a219.62752 219.62752 0 0 0-8.25856-2.63168c-0.6656-0.24064-1.3568-0.42496-2.05312-0.63488-2.8672-0.88064-5.73952-1.72544-8.62208-2.53952l-1.72544-0.45568a357.9648 357.9648 0 0 0-10.1376-2.72384 455.54688 455.54688 0 0 0-8.88832-2.1504l-3.1744-0.75264c-2.9696-0.68096-5.94432-1.34656-8.92416-1.9968l-3.53792-0.72704c-2.37056-0.49152-4.74112-0.97792-7.11168-1.44896l-5.20192-1.02912-7.35232-1.39264-4.89984-0.87552c-2.90304-0.4864-5.8368-0.9728-8.77056-1.51552l-5.74464-0.90624-5.38624-0.8192c-3.3024-0.512-6.60992-0.9984-9.92256-1.44896l-4.44416-0.6656a1224.7552 1224.7552 0 0 0-14.06976-1.81248l-1.44896-0.21504-8.22784-0.9984-1.9968-0.20992c-5.14048-0.60416-10.37312-1.1776-15.6672-1.72544l-1.664-0.1792c-52.02944-5.35552-112.5888-8.77056-182.3744-10.28608h-0.81408l-23.38304-0.42496-1.81248-0.03072-11.95008-0.14848-7.19872-0.09216c-11.6224-0.11776-23.24992-0.18944-34.87744-0.20992l-12.0064-0.03072h-8.71424l-15.57504 0.06144z" fill="#FF6A00" /></svg>